<?xml version="1.0" encoding="UTF-8" standalone="no"?>
<svg width="29px" height="29px" viewBox="0 0 29 29" version="1.1" xmlns="http://www.w3.org/2000/svg" xmlns:xlink="http://www.w3.org/1999/xlink" xmlns:sketch="http://www.bohemiancoding.com/sketch/ns">
    <!-- Generator: Sketch 3.4 (15575) - http://www.bohemiancoding.com/sketch -->
    <title>Shape + Shape</title>
    <desc>Created with Sketch.</desc>
    <defs></defs>
    <g id="Differents-items" stroke="none" stroke-width="1" fill="none" fill-rule="evenodd" sketch:type="MSPage">
        <g id="Création-Tache" sketch:type="MSArtboardGroup" transform="translate(-782.000000, -118.000000)" fill="#EA5E0F">
            <g id="CONTENT" sketch:type="MSLayerGroup" transform="translate(9.000000, 9.000000)">
                <g id="COLONNE-DROITE" transform="translate(436.000000, 89.000000)" sketch:type="MSShapeGroup">
                    <g id="ONGLET-B" transform="translate(269.000000, 1.000000)">
                        <g id="Shape-+-Shape" transform="translate(68.000000, 19.000000)">
                            <path d="M12.7676765,28.2540344 C13.2581176,28.7460836 13.827835,28.9840262 14.4920866,28.9840262 C15.1725441,28.9840262 15.7338268,28.7382393 16.2009542,28.2540344 C16.6674183,27.7700672 16.912781,27.2062787 16.912781,26.5398492 L12.0558497,26.5398492 C12.0558497,27.2062787 12.2931095,27.7775787 12.7676765,28.2540344 L12.7676765,28.2540344 Z" id="Shape"></path>
                            <path d="M28.8416846,24.3015246 C27.7086471,22.6257049 26.8570801,20.8276098 26.2789281,18.9363344 C25.7021029,17.0498131 25.188348,14.3171574 24.7283284,10.7460213 C24.4606944,8.66648361 23.6121601,6.91207869 22.6715082,5.77770328 C22.204049,5.21353443 21.6711029,4.70322951 21.0577908,4.25387213 C19.8518742,3.37008525 18.8744036,2.9522 17.7352533,2.61898525 C17.577317,1.87297213 17.1945833,1.25769672 16.5806078,0.761939344 C15.9761095,0.273645902 15.2831895,0.0159262295 14.4920392,0.0159262295 C13.7167631,0.0159262295 13.0208105,0.269890164 12.4196765,0.761939344 C11.8182108,1.25394098 11.4385098,1.87297213 11.2805261,2.61898525 C10.1413758,2.9522 9.15855065,3.36262131 7.94211438,4.25387213 C7.3393219,4.69576557 6.80267974,5.2057377 6.32844444,5.77770328 C5.39456863,6.90432951 4.55546405,8.66653115 4.28749837,10.7460213 C3.82776307,14.3171574 3.29955556,17.0451066 2.72140359,18.9363344 C2.14457843,20.8228557 1.30045098,22.6209508 0.174142157,24.3015246 C0.0664820261,24.4624508 0,24.6188131 0,24.7935738 C0,24.936482 0.0300424837,25.0645098 0.11069281,25.2064197 C0.283176471,25.5091131 0.53801634,25.6666164 0.885968954,25.6666164 L28.1298578,25.6666164 C28.4778578,25.6666164 28.7309918,25.5078295 28.9050866,25.2064197 C28.9682042,25.0635115 28.9999526,24.9206033 28.9999526,24.7776951 C29,24.6029344 28.9429477,24.4511836 28.8416846,24.3015246 L28.8416846,24.3015246 Z M2.46826961,23.9046525 C3.41735621,22.2697656 4.13761765,20.4743803 4.63583007,18.555341 C5.1346585,16.6329738 5.58761765,14.0932869 6.02778268,10.9681328 C6.41051634,8.25202131 7.63979412,6.54534754 9.17613072,5.5236918 C10.2663317,4.79902459 11.1992124,4.41974262 12.2931095,4.17462131 C12.6866471,4.08624262 12.9418186,3.73035082 12.9418186,3.33347869 L12.9418186,3.30167377 C12.9418186,2.45915246 13.6536454,1.77784262 14.4920392,1.77784262 C15.3621814,1.77784262 16.0425915,2.46053115 16.0425915,3.30167377 L16.0425915,3.33347869 C16.0425915,3.73035082 16.3237778,4.07678197 16.7230016,4.17462131 C17.8115441,4.44180164 18.7595882,4.78381148 19.8238219,5.5236918 C20.3574788,5.89484426 20.8302925,6.30659672 21.2319804,6.77758525 C22.0484346,7.73525082 22.7329199,9.20654918 22.9722647,10.9680852 C23.3971716,14.0952836 23.8582337,16.618759 24.3645016,18.5394148 C24.870817,20.4600705 25.5984706,22.2538393 26.5479363,23.9046049 L2.46826961,23.9046049 L2.46826961,23.9046525 Z" id="Shape"></path>
                        </g>
                    </g>
                </g>
            </g>
        </g>
    </g>
</svg>