<?xml version="1.0" encoding="UTF-8" standalone="no"?>
<svg width="33px" height="33px" viewBox="0 0 33 33" version="1.1" xmlns="http://www.w3.org/2000/svg" xmlns:xlink="http://www.w3.org/1999/xlink" xmlns:sketch="http://www.bohemiancoding.com/sketch/ns">
    <!-- Generator: Sketch 3.4 (15575) - http://www.bohemiancoding.com/sketch -->
    <title>Bulle</title>
    <desc>Created with Sketch.</desc>
    <defs></defs>
    <g id="Differents-items" stroke="none" stroke-width="1" fill="none" fill-rule="evenodd" sketch:type="MSPage">
        <g id="Création-Tache" sketch:type="MSArtboardGroup" transform="translate(-67.000000, -115.000000)" fill="#8A6593">
            <g id="CONTENT" sketch:type="MSLayerGroup" transform="translate(9.000000, 9.000000)">
                <g id="COLONNE-GAUCHE" transform="translate(16.000000, 88.000000)" sketch:type="MSShapeGroup">
                    <g id="ONGLET" transform="translate(42.000000, 18.000000)">
                        <g id="Bulle">
                            <path d="M32.2580653,0.716533225 C31.7922969,0.243675851 31.2163312,0 30.5357129,0 L2.4360783,0 C1.75502936,0 1.17906362,0.243675851 0.713725938,0.716533225 C0.257862969,1.17885413 0.0125970636,1.7510859 0.0125970636,2.40782334 L0.0125970636,26.4049741 C0.0125970636,27.061658 0.248011419,27.6436775 0.713725938,28.1165883 C1.16921207,28.5788558 1.75497553,28.8127974 2.4360783,28.8127974 L18.3985498,28.8127974 L25.909199,32.9716532 L25.909199,28.8127974 L30.5357129,28.8127974 C31.2163312,28.8127974 31.8020946,28.5788558 32.2580114,28.1165883 C32.7237259,27.6436775 32.9587635,27.061658 32.9587635,26.4049741 L32.9587635,10.5264652 L32.9587635,2.40782334 C32.9587635,1.7510859 32.7135514,1.17885413 32.2580653,0.716533225 L32.2580653,0.716533225 Z M30.7356509,8.11864182 L30.7356509,10.5264117 L30.7356509,26.4049206 C30.7356509,26.5445689 30.6758418,26.6239935 30.5356591,26.6239935 L25.909199,26.6239935 L23.6860865,26.6239935 L23.6860865,28.8127439 L23.6860865,29.2308331 L22.9447439,28.8127439 L19.4599331,26.8629627 L18.9591729,26.6239935 L5.88078303,26.6239935 L2.4360783,26.6239935 C2.29594943,26.6239935 2.23570962,26.5446224 2.23570962,26.4049206 L2.23570962,2.40782334 C2.23570962,2.26854943 2.29594943,2.20870016 2.4360783,2.20870016 L30.5356591,2.20870016 C30.6758418,2.20870016 30.7356509,2.26854943 30.7356509,2.40782334 L30.7356509,8.11864182 L30.7356509,8.11864182 Z" id="Shape"></path>
                            <path d="M25.1277504,16.8340648 L17.1167716,16.8340648 C16.4959625,16.8340648 16.0152822,17.3116823 16.0152822,17.9284668 C16.0152822,18.5452512 16.4959625,19.042765 17.1167716,19.042765 L25.1277504,19.042765 C25.7489902,19.042765 26.2296705,18.5452512 26.2296705,17.9284668 C26.2296705,17.3116823 25.7489902,16.8340648 25.1277504,16.8340648 L25.1277504,16.8340648 Z" id="Shape"></path>
                            <path d="M25.1277504,11.939154 L11.3887684,11.939154 C10.7679592,11.939154 10.267199,12.4366677 10.267199,13.0534522 C10.267199,13.6702366 10.7679592,14.1478006 11.3887684,14.1478006 L25.1277504,14.1478006 C25.7489902,14.1478006 26.2296705,13.6702366 26.2296705,13.0534522 C26.2296705,12.4366677 25.7489902,11.939154 25.1277504,11.939154 L25.1277504,11.939154 Z" id="Shape"></path>
                            <path d="M25.1277504,7.00429011 L7.84366395,7.00429011 C7.22285481,7.00429011 6.74217455,7.50180389 6.74217455,8.11858833 C6.74217455,8.73537277 7.22285481,9.21293679 7.84366395,9.21293679 L25.1276966,9.21293679 C25.7489364,9.21293679 26.2296166,8.73537277 26.2296166,8.11858833 C26.2296705,7.50180389 25.7489902,7.00429011 25.1277504,7.00429011 L25.1277504,7.00429011 Z" id="Shape"></path>
                        </g>
                    </g>
                </g>
            </g>
        </g>
    </g>
</svg>