<?xml version="1.0" encoding="utf-8"?>
<!-- Generator: Adobe Illustrator 16.0.0, SVG Export Plug-In . SVG Version: 6.00 Build 0)  -->
<!DOCTYPE svg PUBLIC "-//W3C//DTD SVG 1.1//EN" "http://www.w3.org/Graphics/SVG/1.1/DTD/svg11.dtd">
<svg version="1.1" id="Calque_1" xmlns:sketch="http://www.bohemiancoding.com/sketch/ns"
	 xmlns="http://www.w3.org/2000/svg" xmlns:xlink="http://www.w3.org/1999/xlink" x="0px" y="0px" width="31.188px" height="26px"
	 viewBox="0 0 31.188 26" enable-background="new 0 0 31.188 26" xml:space="preserve">
<title>Shape</title>
<desc>Created with Sketch.</desc>
<g id="Page-1_1_" sketch:type="MSPage">
	<g id="Mobile-Portrait_1_" transform="translate(-251.000000, -21.000000)" sketch:type="MSArtboardGroup">
		<g id="Menu-Copy-2_1_" sketch:type="MSLayerGroup">
			<g id="Burger" transform="translate(214.000000, 0.000000)">
				<g id="burger">
					<g sketch:type="MSShapeGroup">
						<path id="path-1_3_" fill="#9A78AB" d="M37,23.481c0-1.367,1.129-2.475,2.521-2.475h26.148c1.391,0,2.52,1.108,2.52,2.475
							s-1.129,2.475-2.52,2.475H39.52C38.128,25.956,37,24.848,37,23.481L37,23.481z M65.668,31.525H39.52
							C38.128,31.525,37,32.634,37,34c0,1.367,1.129,2.475,2.521,2.475h26.148c1.391,0,2.52-1.108,2.52-2.475
							C68.188,32.634,67.059,31.525,65.668,31.525L65.668,31.525z M65.668,42.045H39.52c-1.392,0-2.521,1.109-2.521,2.476
							s1.129,2.475,2.521,2.475h26.148c1.391,0,2.52-1.108,2.52-2.475S67.059,42.045,65.668,42.045L65.668,42.045z"/>
					</g>
					<g>
						<path id="path-1_2_" fill="none" d="M37,23.481c0-1.367,1.129-2.475,2.521-2.475h26.148c1.391,0,2.52,1.108,2.52,2.475
							s-1.129,2.475-2.52,2.475H39.52C38.128,25.956,37,24.848,37,23.481L37,23.481z M65.668,31.525H39.52
							C38.128,31.525,37,32.634,37,34c0,1.367,1.129,2.475,2.521,2.475h26.148c1.391,0,2.52-1.108,2.52-2.475
							C68.188,32.634,67.059,31.525,65.668,31.525L65.668,31.525z M65.668,42.045H39.52c-1.392,0-2.521,1.109-2.521,2.476
							s1.129,2.475,2.521,2.475h26.148c1.391,0,2.52-1.108,2.52-2.475S67.059,42.045,65.668,42.045L65.668,42.045z"/>
					</g>
				</g>
			</g>
		</g>
	</g>
</g>
</svg>
