<?xml version="1.0" encoding="UTF-8" standalone="no"?>
<svg width="33px" height="32px" viewBox="0 0 33 32" version="1.1" xmlns="http://www.w3.org/2000/svg" xmlns:xlink="http://www.w3.org/1999/xlink" xmlns:sketch="http://www.bohemiancoding.com/sketch/ns">
    <!-- Generator: Sketch 3.4 (15575) - http://www.bohemiancoding.com/sketch -->
    <title>calendar166</title>
    <desc>Created with Sketch.</desc>
    <defs></defs>
    <g id="Differents-items" stroke="none" stroke-width="1" fill="none" fill-rule="evenodd" sketch:type="MSPage">
        <g id="Création-Tache" sketch:type="MSArtboardGroup" transform="translate(-499.000000, -113.000000)" fill="#A7A7A7">
            <g id="CONTENT" sketch:type="MSLayerGroup" transform="translate(9.000000, 9.000000)">
                <g id="COLONNE-DROITE" transform="translate(436.000000, 89.000000)" sketch:type="MSShapeGroup">
                    <g id="ONGLET-A" transform="translate(1.000000, 0.000000)">
                        <g id="calendar166" transform="translate(53.000000, 15.000000)">
                            <g id="Group">
                                <path d="M32.2972941,3.26427304 C31.830549,2.78159727 31.2738627,2.53269625 30.5912157,2.53269625 L23.4253088,2.53269625 L23.4253088,1.15014334 C23.4253088,0.520027304 22.9435196,0.032109215 22.3213186,0.032109215 C21.6991176,0.032109215 21.2173284,0.520027304 21.2173284,1.15014334 L21.2173284,2.53269625 L11.8032157,2.53269625 L11.8032157,1.15014334 C11.8032157,0.520027304 11.3013137,0.032109215 10.6791127,0.032109215 C10.0564804,0.032109215 9.57517647,0.520027304 9.57517647,1.15014334 L9.57517647,2.53269625 L2.42889706,2.53269625 C1.74673529,2.53269625 1.1695049,2.78165188 0.702705882,3.26427304 C0.246205882,3.73701024 0,4.32158362 0,4.99249147 L0,29.5080956 C0,30.1789488 0.235960784,30.7735154 0.702705882,31.2562457 C1.15920588,31.7289283 1.74673529,31.9678908 2.42889706,31.9678908 L30.5912157,31.9678908 C31.2738088,31.9678908 31.8407941,31.7289283 32.2972941,31.2562457 C32.7640392,30.7730785 33,30.1789488 33,29.5080956 L33,4.99249147 C33,4.32158362 32.7541716,3.73701024 32.2972941,3.26427304 L32.2972941,3.26427304 Z M30.7920735,29.5080956 C30.7920735,29.6502935 30.7316814,29.7115085 30.5912157,29.7115085 L2.42889706,29.7115085 C2.32871078,29.7115085 2.20835784,29.5896246 2.20835784,29.5080956 L2.20835784,12.9811877 L30.7920735,12.9811877 L30.7920735,29.5080956 L30.7920735,29.5080956 Z M30.7920735,10.7451741 L2.20835784,10.7451741 L2.20835784,4.99249147 C2.20835784,4.85023891 2.28843137,4.7890785 2.42889706,4.7890785 L9.57517647,4.7890785 L9.57517647,5.27699659 C9.57517647,5.90711263 10.0564804,6.41539932 10.6791127,6.41539932 C11.3013676,6.41539932 11.8032157,5.90711263 11.8032157,5.27699659 L11.8032157,4.7890785 L21.2173284,4.7890785 L21.2173284,5.27699659 C21.2173284,5.90711263 21.6991176,6.41539932 22.3213186,6.41539932 C22.9435196,6.41539932 23.4253088,5.90711263 23.4253088,5.27699659 L23.4253088,4.7890785 L30.5912696,4.7890785 C30.7316814,4.7890785 30.7921275,4.85023891 30.7921275,4.99249147 L30.7921275,10.7451741 L30.7920735,10.7451741 Z" id="Shape"></path>
                                <rect id="Rectangle-path" x="11.8832892" y="16.0307986" width="4.83768137" height="4.85843003"></rect>
                                <rect id="Rectangle-path" x="5.33952941" y="16.0307986" width="4.85779412" height="4.85843003"></rect>
                                <rect id="Rectangle-path" x="5.33952941" y="22.5966416" width="4.85779412" height="4.91959044"></rect>
                            </g>
                        </g>
                    </g>
                </g>
            </g>
        </g>
    </g>
</svg>