<?xml version="1.0" encoding="utf-8"?>
<!-- Generator: Adobe Illustrator 16.0.0, SVG Export Plug-In . SVG Version: 6.00 Build 0)  -->
<!DOCTYPE svg PUBLIC "-//W3C//DTD SVG 1.1//EN" "http://www.w3.org/Graphics/SVG/1.1/DTD/svg11.dtd">
<svg version="1.1" id="Calque_1" xmlns:sketch="http://www.bohemiancoding.com/sketch/ns"
	 xmlns="http://www.w3.org/2000/svg" xmlns:xlink="http://www.w3.org/1999/xlink" x="0px" y="0px" width="25px" height="24px"
	 viewBox="0 0 25 24" enable-background="new 0 0 25 24" xml:space="preserve">
<g id="Page-1" sketch:type="MSPage">
	<g id="Flux-Question" transform="translate(-444.000000, -25.000000)" sketch:type="MSArtboardGroup">
		<g id="Header-Patient" sketch:type="MSLayerGroup">
			<g id="QUESTION" transform="translate(444.000000, 19.000000)">
				<g id="Question" transform="translate(0.000000, 6.000000)">
					<g id="Shape">
						<g sketch:type="MSShapeGroup">
							<path id="path-1" fill="#9A78AB" d="M24.354,3.682c0-1.799-1.414-3.231-3.195-3.231H3.678c-1.782,0-3.279,1.432-3.279,3.231
								v8.937v10.741l2.293-2.093c0.106-0.098,0.226-0.188,0.312-0.269c1.047-0.975,1.315-1.13,2.682-1.102
								c0.186,0.004,0.408,0.006,0.679,0.006h14.794c1.781,0,3.195-1.457,3.195-3.257V3.682L24.354,3.682L24.354,3.682L24.354,3.682
								L24.354,3.682L24.354,3.682L24.354,3.682L24.354,3.682L24.354,3.682L24.354,3.682L24.354,3.682L24.354,3.682L24.354,3.682
								L24.354,3.682L24.354,3.682L24.354,3.682L24.354,3.682L24.354,3.682L24.354,3.682L24.354,3.682L24.354,3.682L24.354,3.682
								L24.354,3.682L24.354,3.682L24.354,3.682L24.354,3.682L24.354,3.682L24.354,3.682L24.354,3.682L24.354,3.682L24.354,3.682
								L24.354,3.682L24.354,3.682L24.354,3.682L24.354,3.682L24.354,3.682L24.354,3.682L24.354,3.682L24.354,3.682L24.354,3.682z"
								/>
						</g>
						<g>
							<path id="path-1_1_" fill="none" d="M24.354,3.682c0-1.799-1.414-3.231-3.195-3.231H3.678c-1.782,0-3.279,1.432-3.279,3.231
								v8.937v10.741l2.293-2.093c0.106-0.098,0.226-0.188,0.312-0.269c1.047-0.975,1.315-1.13,2.682-1.102
								c0.186,0.004,0.408,0.006,0.679,0.006h14.794c1.781,0,3.195-1.457,3.195-3.257V3.682L24.354,3.682L24.354,3.682L24.354,3.682
								L24.354,3.682L24.354,3.682L24.354,3.682L24.354,3.682L24.354,3.682L24.354,3.682L24.354,3.682L24.354,3.682L24.354,3.682
								L24.354,3.682L24.354,3.682L24.354,3.682L24.354,3.682L24.354,3.682L24.354,3.682L24.354,3.682L24.354,3.682L24.354,3.682
								L24.354,3.682L24.354,3.682L24.354,3.682L24.354,3.682L24.354,3.682L24.354,3.682L24.354,3.682L24.354,3.682L24.354,3.682
								L24.354,3.682L24.354,3.682L24.354,3.682L24.354,3.682L24.354,3.682L24.354,3.682L24.354,3.682L24.354,3.682L24.354,3.682z"
								/>
						</g>
					</g>
				</g>
			</g>
		</g>
	</g>
</g>
<path fill="#FFFFFF" d="M11.188,6.099c0-0.541,0.443-0.984,0.984-0.984h0.656c0.541,0,0.984,0.443,0.984,0.984v0.656
	c0,0.541-0.443,0.984-0.984,0.984h-0.656c-0.541,0-0.984-0.443-0.984-0.984V6.099z"/>
<path fill="#FFFFFF" d="M15.125,15.614h-5.25v-1.312h1.312v-3.938H9.875V9.052h3.938v5.25h1.312V15.614z"/>
</svg>
