<?xml version="1.0" encoding="UTF-8" standalone="no"?>
<svg width="27px" height="29px" viewBox="0 0 27 29" version="1.1" xmlns="http://www.w3.org/2000/svg" xmlns:xlink="http://www.w3.org/1999/xlink" xmlns:sketch="http://www.bohemiancoding.com/sketch/ns">
    <!-- Generator: Sketch 3.4 (15575) - http://www.bohemiancoding.com/sketch -->
    <title>Like</title>
    <desc>Created with Sketch.</desc>
    <defs>
        <linearGradient x1="0%" y1="0%" x2="101.999998%" y2="100.999999%" id="linearGradient-1">
            <stop stop-color="#49344D" offset="0%"></stop>
            <stop stop-color="#75567C" offset="100%"></stop>
        </linearGradient>
    </defs>
    <g id="Differents-items" stroke="none" stroke-width="1" fill="none" fill-rule="evenodd" sketch:type="MSPage">
        <g id="Création-Niveau" sketch:type="MSArtboardGroup" transform="translate(-241.000000, -601.000000)" fill="url(#linearGradient-1)">
            <g id="CONTENT" sketch:type="MSLayerGroup" transform="translate(9.000000, 9.000000)">
                <g id="COLONNE-GAUCHE" transform="translate(16.000000, 88.000000)" sketch:type="MSShapeGroup">
                    <g id="ICONES" transform="translate(16.000000, 454.000000)">
                        <g id="D" transform="translate(187.000000, 37.000000)">
                            <g id="Like" transform="translate(13.000000, 13.000000)">
                                <path d="M24.9351066,10.2860926 L15.4659924,10.2741319 C15.4659924,10.2741319 16.0150038,7.75340103 16.1136126,6.57227568 C16.1802402,5.76492417 16.1962575,4.96056286 16.0309944,4.16517211 C15.7858049,2.9690958 15.5112992,2.22154811 15.0742221,1.29458897 C14.839693,0.804197685 14.3866253,0.499198227 13.8935811,0.499198227 L12.0599896,0.499198227 C11.3217558,0.499198227 10.7247459,1.17199115 10.7274377,2.00027399 C10.7327679,3.38473232 10.7327679,5.23267022 10.7061168,5.29546422 C9.98653878,6.99389258 9.15236126,8.62354655 8.21157958,10.1784457 C7.78249785,10.8901112 7.33209529,11.5808452 6.80973493,12.2117755 C6.58053599,12.486873 6.45527611,12.8516763 6.45527611,13.2254501 L6.45527611,26.2985941 C6.45527611,26.6842689 6.5885313,27.0580427 6.82839065,27.3361604 C7.18551458,27.7488366 7.82513951,28.2391681 8.87519045,28.2391681 C12.1879146,28.2242171 17.5554339,28.191325 21.371836,28.221227 C21.8488896,28.2242171 22.2912968,27.9431691 22.5311562,27.4796895 L25.8972091,21.0148971 C26.126408,20.5663685 26.2463377,20.0580361 26.2489761,19.540763 L26.2676319,11.7871684 C26.2676585,10.9588855 25.6706752,10.2890828 24.9351066,10.2860926 L24.9351066,10.2860926 Z" id="Shape"></path>
                                <path d="M3.49434567,12.4210888 L2.30037913,12.4210888 C1.56481045,12.4210888 0.967827175,13.0908916 0.967827175,13.9161842 L0.967827175,26.7441026 C0.967827175,27.5694551 1.56481045,28.239198 2.30037913,28.239198 L3.49168057,28.239198 C4.22724925,28.239198 4.82423252,27.5694551 4.82423252,26.7441026 L4.82423252,13.9161842 C4.82689762,13.0908916 4.22991435,12.4210888 3.49434567,12.4210888 L3.49434567,12.4210888 Z" id="Shape"></path>
                            </g>
                        </g>
                    </g>
                </g>
            </g>
        </g>
    </g>
</svg>