<?xml version="1.0" encoding="utf-8"?>
<!-- Generator: Adobe Illustrator 16.0.0, SVG Export Plug-In . SVG Version: 6.00 Build 0)  -->
<!DOCTYPE svg PUBLIC "-//W3C//DTD SVG 1.1//EN" "http://www.w3.org/Graphics/SVG/1.1/DTD/svg11.dtd">
<svg version="1.1" id="Calque_1" xmlns="http://www.w3.org/2000/svg" xmlns:xlink="http://www.w3.org/1999/xlink" x="0px" y="0px"
	 width="44px" height="44.833px" viewBox="169.5 0 44 44.833" enable-background="new 169.5 0 44 44.833" xml:space="preserve">
<g id="icon_app">
</g>
<g id="horiz__x28_fond_violet_x29_">
</g>
<g id="horiz__x28_fond_blanc_x29_">
	<g>
		<g>
			<path fill="#775680" d="M206.77,21.52c0-2.273-0.519-4.426-1.437-6.35l4.213-3.363l-4.045-5.069l-4.18,3.338l0,0l-6.256,4.993
				c-3.314,2.645-7.521,7.936-9.355,11.76l-2.955,6.168l0,0l-2.812,5.871l5.849,2.805l2.785-5.811
				c1.104,0.266,2.256,0.408,3.44,0.408c0.965,0,1.905-0.096,2.817-0.27l2.732,5.65l5.84-2.824l-2.631-5.439
				c1.799-1.329,3.281-3.061,4.324-5.057l5.637,1.281l1.438-6.328l-5.42-1.229C206.762,21.877,206.77,21.699,206.77,21.52z"/>
			<g>
				<g>
					<rect x="188.598" y="1.825" fill="#EA5B0C" width="6.098" height="10.486"/>
					
						<rect x="174.097" y="20.051" transform="matrix(0.2248 0.9744 -0.9744 0.2248 161.9736 -153.0038)" fill="#F9AE00" width="6.099" height="10.488"/>
					
						<rect x="174.748" y="9.656" transform="matrix(0.7837 0.6211 -0.6211 0.7837 46.8171 -109.0441)" fill="#F39200" width="10.484" height="6.098"/>
				</g>
			</g>
		</g>
	</g>
</g>
<g id="carré__x28_fond_violet_x29_">
</g>
<g id="carré__x28_fond_blanc_x29_">
</g>
</svg>
