<?xml version="1.0" encoding="utf-8"?>
<!-- Generator: Adobe Illustrator 16.0.0, SVG Export Plug-In . SVG Version: 6.00 Build 0)  -->
<!DOCTYPE svg PUBLIC "-//W3C//DTD SVG 1.1//EN" "http://www.w3.org/Graphics/SVG/1.1/DTD/svg11.dtd">
<svg version="1.1" xmlns="http://www.w3.org/2000/svg" xmlns:xlink="http://www.w3.org/1999/xlink" x="0px" y="0px"
	 width="213.499px" height="44.833px" viewBox="0 0 213.499 44.833" enable-background="new 0 0 213.499 44.833"
	 xml:space="preserve">
<g id="icon_app">
</g>
<g id="horiz__x28_fond_violet_x29_">
</g>
<g id="horiz__x28_fond_blanc_x29_">
	<g>
		<g>
			<path fill="#775680" d="M3.008,35.636L4.669,14.98H8.65l5.487,16.338l5.36-16.338h3.951l1.881,20.655h-2.885l-1.441-16.026
				l-5.299,16.026h-3.073L7.177,19.609L5.892,35.636H3.008z"/>
			<path fill="#775680" d="M27.523,18.988h3.104l3.699,12.635c0.313,1.025,0.952,1.443,1.913,1.256l0.062-0.032l4.391-13.858h3.135
				l-6.929,21.916l-2.319,3.197h-1.914l2.791-8.466c-2.006,0-3.365-1.222-4.075-3.667L27.523,18.988z"/>
			<path fill="#775680" d="M48.059,35.636V14.98H56.9c1.336,0,2.508,0.228,3.512,0.68c1.002,0.449,1.787,1.016,2.352,1.691
				c0.564,0.678,1.023,1.496,1.379,2.457c0.586,1.596,0.877,3.46,0.877,5.586c0,3.497-0.898,6.196-2.695,8.098
				c-0.607,0.658-1.375,1.182-2.305,1.564c-0.93,0.387-1.971,0.579-3.119,0.579H48.059z M50.943,33.098h5.861
				c1.234,0,2.258-0.357,3.074-1.073c1.504-1.298,2.256-3.442,2.256-6.433c0-2.992-0.449-5.094-1.348-6.308
				s-2.227-1.819-3.982-1.819h-5.861V33.098z"/>
			<path fill="#775680" d="M67.811,27.549c0-2.279,0.238-4.045,0.721-5.301c0.48-1.253,1.244-2.137,2.289-2.648
				c1.045-0.511,2.508-0.768,4.389-0.768c2.822,0,4.76,0.627,5.816,1.88c1.055,1.256,1.582,3.487,1.582,6.694
				c0,3.209-0.527,5.408-1.582,6.602c-1.057,1.189-2.984,1.787-5.785,1.787s-4.74-0.619-5.816-1.852
				C68.348,32.709,67.811,30.578,67.811,27.549z M71.148,23.473c-0.178,0.459-0.299,1.018-0.359,1.676
				c-0.062,0.658-0.094,1.438-0.094,2.337s0.035,1.66,0.109,2.29c0.072,0.626,0.203,1.142,0.391,1.551
				c0.189,0.408,0.393,0.73,0.611,0.971c0.221,0.24,0.527,0.423,0.926,0.55c0.605,0.209,1.348,0.31,2.227,0.296
				c0.877-0.008,1.525-0.039,1.943-0.092s0.83-0.178,1.238-0.376c0.406-0.198,0.715-0.507,0.926-0.925
				c0.438-0.899,0.658-2.301,0.658-4.201c0-1.925-0.115-3.193-0.346-3.81s-0.443-1.056-0.643-1.317s-0.486-0.465-0.863-0.613
				c-0.586-0.229-1.326-0.344-2.227-0.344c-0.898,0-1.535,0.021-1.912,0.064c-0.375,0.042-0.758,0.129-1.143,0.264
				c-0.389,0.138-0.68,0.336-0.879,0.598S71.326,23.012,71.148,23.473z"/>
			<path fill="#775680" d="M85.49,30.933c-0.188-1.022-0.281-2.236-0.281-3.636c0-1.4,0.09-2.605,0.266-3.621
				c0.18-1.013,0.418-1.83,0.723-2.445c0.303-0.616,0.693-1.113,1.174-1.488c0.838-0.608,1.945-0.91,3.324-0.91
				c1.254,0,2.598,0.098,4.029,0.297c1.432,0.201,2.512,0.394,3.244,0.581v1.943c-2.654-0.124-4.561-0.188-5.723-0.188
				c-1.158,0-1.869,0.027-2.131,0.08c-0.262,0.051-0.539,0.182-0.83,0.391c-0.293,0.209-0.514,0.523-0.658,0.941
				c-0.355,0.98-0.533,2.371-0.533,4.17c0,1.797,0.104,3.108,0.312,3.934c0.209,0.827,0.527,1.391,0.957,1.694
				c0.428,0.302,1.061,0.454,1.896,0.454c1.672,0,3.617-0.073,5.832-0.219l1.098-0.096v2.039c-1.465,0.502-3.094,0.793-4.893,0.877
				c-2.174,0.104-3.574,0.077-4.199-0.078c-0.629-0.156-1.188-0.418-1.678-0.783c-0.492-0.367-0.889-0.856-1.191-1.475
				C85.924,32.777,85.68,31.959,85.49,30.933z"/>
			<path fill="#775680" d="M101.26,17.492V14.98h16.211v2.512h-6.742v18.144h-2.883V17.492H101.26z"/>
			<path fill="#775680" d="M117.189,27.549c0-2.279,0.238-4.045,0.721-5.301c0.48-1.253,1.244-2.137,2.289-2.648
				c1.045-0.511,2.508-0.768,4.389-0.768c2.822,0,4.76,0.627,5.816,1.88c1.055,1.256,1.582,3.487,1.582,6.694
				c0,3.209-0.527,5.408-1.582,6.602c-1.057,1.189-2.984,1.787-5.785,1.787s-4.74-0.619-5.816-1.852
				C117.727,32.709,117.189,30.578,117.189,27.549z M120.527,23.473c-0.178,0.459-0.299,1.018-0.359,1.676
				c-0.062,0.658-0.094,1.438-0.094,2.337s0.035,1.66,0.109,2.29c0.072,0.626,0.203,1.142,0.391,1.551
				c0.189,0.408,0.393,0.73,0.611,0.971c0.221,0.24,0.527,0.423,0.926,0.55c0.605,0.209,1.348,0.31,2.227,0.296
				c0.877-0.008,1.525-0.039,1.943-0.092s0.83-0.178,1.238-0.376c0.406-0.198,0.715-0.507,0.926-0.925
				c0.438-0.899,0.658-2.301,0.658-4.201c0-1.925-0.115-3.193-0.346-3.81s-0.443-1.056-0.643-1.317s-0.486-0.465-0.863-0.613
				c-0.586-0.229-1.326-0.344-2.225-0.344c-0.9,0-1.537,0.021-1.914,0.064c-0.375,0.042-0.758,0.129-1.143,0.264
				c-0.389,0.138-0.68,0.336-0.879,0.598S120.705,23.012,120.527,23.473z"/>
			<path fill="#775680" d="M134.588,27.549c0-2.279,0.24-4.045,0.721-5.301c0.482-1.253,1.244-2.137,2.289-2.648
				c1.045-0.511,2.508-0.768,4.389-0.768c2.822,0,4.762,0.627,5.816,1.88c1.055,1.256,1.584,3.487,1.584,6.694
				c0,3.209-0.529,5.408-1.584,6.602c-1.055,1.189-2.982,1.787-5.783,1.787s-4.74-0.619-5.816-1.852
				C135.127,32.709,134.588,30.578,134.588,27.549z M137.928,23.473c-0.178,0.459-0.299,1.018-0.361,1.676s-0.094,1.438-0.094,2.337
				s0.035,1.66,0.109,2.29c0.074,0.626,0.205,1.142,0.393,1.551c0.188,0.408,0.393,0.73,0.611,0.971s0.527,0.423,0.926,0.55
				c0.605,0.209,1.346,0.31,2.227,0.296c0.877-0.008,1.525-0.039,1.941-0.092c0.418-0.053,0.832-0.178,1.24-0.376
				c0.406-0.198,0.715-0.507,0.924-0.925c0.439-0.899,0.658-2.301,0.658-4.201c0-1.925-0.115-3.193-0.344-3.81
				c-0.23-0.616-0.445-1.056-0.643-1.317c-0.199-0.262-0.486-0.465-0.863-0.613c-0.586-0.229-1.328-0.344-2.227-0.344
				s-1.535,0.021-1.912,0.064c-0.375,0.042-0.758,0.129-1.145,0.264c-0.387,0.138-0.678,0.336-0.877,0.598
				S138.105,23.012,137.928,23.473z"/>
			<path fill="#775680" d="M152.584,29.711V11.089h2.883v18.435c0,1.232,0.143,2.089,0.424,2.57c0.283,0.48,0.705,0.795,1.27,0.94
				c1.59,0.438,2.457,0.659,2.604,0.659v1.942h-2.98C153.982,35.636,152.584,33.661,152.584,29.711z"/>
		</g>
		<g>
			<path fill="#775680" d="M206.77,21.52c0-2.273-0.518-4.426-1.436-6.35l4.213-3.363l-4.045-5.069l-4.18,3.338l0,0l-6.256,4.993
				c-3.314,2.645-7.521,7.935-9.355,11.759l-2.955,6.169l0,0l-2.812,5.871l5.848,2.805l2.785-5.811
				c1.105,0.266,2.256,0.408,3.441,0.408c0.965,0,1.906-0.096,2.818-0.27l2.732,5.651l5.84-2.825l-2.631-5.439
				c1.799-1.329,3.281-3.06,4.324-5.057l5.637,1.282l1.438-6.328l-5.42-1.23C206.762,21.877,206.77,21.699,206.77,21.52z"/>
			<g>
				<g>
					<rect x="188.598" y="1.825" fill="#EA5B0C" width="6.098" height="10.486"/>
					
						<rect x="174.099" y="20.05" transform="matrix(-0.2248 -0.9744 0.9744 -0.2248 192.3229 203.5945)" fill="#F9AE00" width="6.099" height="10.488"/>
					
						<rect x="174.742" y="9.655" transform="matrix(-0.7837 -0.6211 0.6211 -0.7837 313.1534 134.4488)" fill="#F39200" width="10.484" height="6.098"/>
				</g>
			</g>
		</g>
	</g>
</g>
<g id="carré__x28_fond_violet_x29_">
</g>
<g id="carré__x28_fond_blanc_x29_">
</g>
</svg>
