<?xml version="1.0" encoding="utf-8"?>
<!-- Generator: Adobe Illustrator 16.0.0, SVG Export Plug-In . SVG Version: 6.00 Build 0)  -->
<!DOCTYPE svg PUBLIC "-//W3C//DTD SVG 1.1//EN" "http://www.w3.org/Graphics/SVG/1.1/DTD/svg11.dtd">
<svg version="1.1" id="Calque_1" xmlns:sketch="http://www.bohemiancoding.com/sketch/ns"
	 xmlns="http://www.w3.org/2000/svg" xmlns:xlink="http://www.w3.org/1999/xlink" x="0px" y="0px" width="29.757px" height="22px"
	 viewBox="0 0 29.757 22" enable-background="new 0 0 29.757 22" xml:space="preserve">
<title>Shape</title>
<desc>Created with Sketch.</desc>
<g id="Page-1_1_" sketch:type="MSPage">
	<g id="Mobile-Portrait" transform="translate(-142.000000, -21.000000)" sketch:type="MSArtboardGroup">
		<g id="Menu-Copy-2" sketch:type="MSLayerGroup">
			<g id="Message" transform="translate(107.000000, 0.000000)">
				<g id="Shape_1_">
					<g sketch:type="MSShapeGroup">
						<path id="path-1_3_" fill="#9A78AB" d="M61.225,21H38.532C36.584,21,35,22.482,35,24.304v15.405
							c0,1.822,1.584,3.303,3.532,3.303h22.692c1.947,0,3.532-1.48,3.532-3.303V24.304C64.757,22.482,63.172,21,61.225,21L61.225,21
							z M61.225,40.095H38.532c-0.287,0-0.538-0.18-0.538-0.386V26.341l10.264,8.439c0.21,0.173,0.477,0.268,0.753,0.268h1.732
							c0.275,0,0.542-0.095,0.754-0.268l10.264-8.44v13.369C61.762,39.915,61.51,40.095,61.225,40.095L61.225,40.095z
							 M49.878,32.152l-9.982-8.235H59.86L49.878,32.152L49.878,32.152z"/>
					</g>
					<g>
						<path id="path-1_2_" fill="none" d="M61.225,21H38.532C36.584,21,35,22.482,35,24.304v15.405c0,1.822,1.584,3.303,3.532,3.303
							h22.692c1.947,0,3.532-1.48,3.532-3.303V24.304C64.757,22.482,63.172,21,61.225,21L61.225,21z M61.225,40.095H38.532
							c-0.287,0-0.538-0.18-0.538-0.386V26.341l10.264,8.439c0.21,0.173,0.477,0.268,0.753,0.268h1.732
							c0.275,0,0.542-0.095,0.754-0.268l10.264-8.44v13.369C61.762,39.915,61.51,40.095,61.225,40.095L61.225,40.095z
							 M49.878,32.152l-9.982-8.235H59.86L49.878,32.152L49.878,32.152z"/>
					</g>
				</g>
			</g>
		</g>
	</g>
</g>
</svg>
