<?xml version="1.0" encoding="utf-8"?>
<!-- Generator: Adobe Illustrator 16.0.0, SVG Export Plug-In . SVG Version: 6.00 Build 0)  -->
<!DOCTYPE svg PUBLIC "-//W3C//DTD SVG 1.1//EN" "http://www.w3.org/Graphics/SVG/1.1/DTD/svg11.dtd">
<svg version="1.1" id="Calque_1" xmlns="http://www.w3.org/2000/svg" xmlns:xlink="http://www.w3.org/1999/xlink" x="0px" y="0px"
	 width="512px" height="512px" viewBox="0 0 512 512" enable-background="new 0 0 512 512" xml:space="preserve">
<g id="icomoon-ignore">
</g>
<g id="Page-1" sketch:type="MSPage">
	<g id="Flux-Information" transform="translate(-324.000000, -196.000000)" sketch:type="MSArtboardGroup">
		<g id="BLOC-TACHE" transform="translate(300.000000, 161.000000)" sketch:type="MSLayerGroup">
			<g id="HEADER" transform="translate(3.000000, 3.000000)">
				<g id="TITRE" transform="translate(21.000000, 32.000000)">
					<g id="Shape">
						<g sketch:type="MSShapeGroup">
							<path id="path-1" fill="none" d="M256.992,129.986c-17.523,0-31.752,14.229-31.752,31.752
								c0,17.522,14.229,31.751,31.752,31.751c17.521,0,31.75-14.209,31.75-31.751C288.742,144.195,274.533,129.986,256.992,129.986
								L256.992,129.986z M256.992,225.24c-17.523,0-31.752,14.208-31.752,31.751v95.253c0,17.522,14.229,31.751,31.752,31.751
								c17.521,0,31.75-14.229,31.75-31.751v-95.253C288.742,239.469,274.533,225.24,256.992,225.24L256.992,225.24z M256.992,2.982
								c-140.053,0-254.01,113.957-254.01,254.009C2.982,397.053,116.939,511,256.992,511C397.053,511,511,397.053,511,256.991
								C511,116.939,397.053,2.982,256.992,2.982L256.992,2.982z M256.992,463.373c-113.809,0-206.383-92.594-206.383-206.382
								c0-113.798,92.574-206.382,206.383-206.382c113.787,0,206.381,92.584,206.381,206.382
								C463.373,370.779,370.779,463.373,256.992,463.373L256.992,463.373z"/>
						</g>
						<g>
							<path id="path-1_1_" fill="#9973A2" d="M256.992,129.986c-17.523,0-31.752,14.229-31.752,31.752
								c0,17.522,14.229,31.751,31.752,31.751c17.521,0,31.75-14.209,31.75-31.751C288.742,144.195,274.533,129.986,256.992,129.986
								L256.992,129.986z M256.992,225.24c-17.523,0-31.752,14.208-31.752,31.751v95.253c0,17.522,14.229,31.751,31.752,31.751
								c17.521,0,31.75-14.229,31.75-31.751v-95.253C288.742,239.469,274.533,225.24,256.992,225.24L256.992,225.24z M256.992,2.982
								c-140.053,0-254.01,113.957-254.01,254.009C2.982,397.053,116.939,511,256.992,511C397.053,511,511,397.053,511,256.991
								C511,116.939,397.053,2.982,256.992,2.982L256.992,2.982z M256.992,463.373c-113.809,0-206.383-92.594-206.383-206.382
								c0-113.798,92.574-206.382,206.383-206.382c113.787,0,206.381,92.584,206.381,206.382
								C463.373,370.779,370.779,463.373,256.992,463.373L256.992,463.373z"/>
						</g>
					</g>
				</g>
			</g>
		</g>
	</g>
</g>
</svg>
