<?xml version="1.0" encoding="utf-8"?>
<!-- Generator: Adobe Illustrator 16.0.0, SVG Export Plug-In . SVG Version: 6.00 Build 0)  -->
<!DOCTYPE svg PUBLIC "-//W3C//DTD SVG 1.1//EN" "http://www.w3.org/Graphics/SVG/1.1/DTD/svg11.dtd">
<svg version="1.1" id="Calque_1" xmlns:sketch="http://www.bohemiancoding.com/sketch/ns"
	 xmlns="http://www.w3.org/2000/svg" xmlns:xlink="http://www.w3.org/1999/xlink" x="0px" y="0px" width="25px" height="24px"
	 viewBox="0 0 25 24" enable-background="new 0 0 25 24" xml:space="preserve">
<title>Question</title>
<desc>Created with Sketch.</desc>
<g id="Page-1" sketch:type="MSPage">
	<g id="Flux-Question" transform="translate(-444.000000, -25.000000)" sketch:type="MSArtboardGroup">
		<g id="Header-Patient" sketch:type="MSLayerGroup">
			<g id="QUESTION" transform="translate(444.000000, 19.000000)">
				<g id="Question" transform="translate(0.000000, 6.000000)">
					<g id="Shape">
						<g sketch:type="MSShapeGroup">
							<path id="path-1" fill="#9A78AB" d="M24.354,3.682c0-1.799-1.414-3.231-3.195-3.231H3.678c-1.782,0-3.279,1.432-3.279,3.231
								v8.937v10.741l2.293-2.093c0.106-0.098,0.226-0.188,0.312-0.269c1.047-0.975,1.315-1.13,2.682-1.102
								c0.186,0.004,0.408,0.006,0.679,0.006h14.794c1.781,0,3.195-1.457,3.195-3.257V3.682L24.354,3.682L24.354,3.682L24.354,3.682
								L24.354,3.682L24.354,3.682L24.354,3.682L24.354,3.682L24.354,3.682L24.354,3.682L24.354,3.682L24.354,3.682L24.354,3.682
								L24.354,3.682L24.354,3.682L24.354,3.682L24.354,3.682L24.354,3.682L24.354,3.682L24.354,3.682L24.354,3.682L24.354,3.682
								L24.354,3.682L24.354,3.682L24.354,3.682L24.354,3.682L24.354,3.682L24.354,3.682L24.354,3.682L24.354,3.682L24.354,3.682
								L24.354,3.682L24.354,3.682L24.354,3.682L24.354,3.682L24.354,3.682L24.354,3.682L24.354,3.682L24.354,3.682L24.354,3.682z"
								/>
						</g>
						<g>
							<path id="path-1_1_" fill="none" d="M24.354,3.682c0-1.799-1.414-3.231-3.195-3.231H3.678c-1.782,0-3.279,1.432-3.279,3.231
								v8.937v10.741l2.293-2.093c0.106-0.098,0.226-0.188,0.312-0.269c1.047-0.975,1.315-1.13,2.682-1.102
								c0.186,0.004,0.408,0.006,0.679,0.006h14.794c1.781,0,3.195-1.457,3.195-3.257V3.682L24.354,3.682L24.354,3.682L24.354,3.682
								L24.354,3.682L24.354,3.682L24.354,3.682L24.354,3.682L24.354,3.682L24.354,3.682L24.354,3.682L24.354,3.682L24.354,3.682
								L24.354,3.682L24.354,3.682L24.354,3.682L24.354,3.682L24.354,3.682L24.354,3.682L24.354,3.682L24.354,3.682L24.354,3.682
								L24.354,3.682L24.354,3.682L24.354,3.682L24.354,3.682L24.354,3.682L24.354,3.682L24.354,3.682L24.354,3.682L24.354,3.682
								L24.354,3.682L24.354,3.682L24.354,3.682L24.354,3.682L24.354,3.682L24.354,3.682L24.354,3.682L24.354,3.682L24.354,3.682z"
								/>
						</g>
					</g>
					<path id="Shape_1_" sketch:type="MSShapeGroup" fill="#FFFFFF" d="M12.272,6.403c0.802,0,1.282,0.478,1.282,1.285
						c0,1.466-2.337,1.87-2.337,3.648c0,0.479,0.28,1.001,0.854,1.001c0.881,0,0.775-0.733,1.096-1.257
						c0.427-0.702,2.417-1.449,2.417-3.394c0-2.107-1.683-2.99-3.392-2.99c-1.628,0-3.125,1.301-3.125,2.767
						c0,0.598,0.401,0.912,0.869,0.912C11.231,8.376,10.563,6.403,12.272,6.403L12.272,6.403z"/>
					<path id="Shape_2_" sketch:type="MSShapeGroup" fill="#FFFFFF" d="M13.221,14.536c0-0.673-0.494-1.226-1.095-1.226
						c-0.601,0-1.095,0.554-1.095,1.226c0,0.673,0.494,1.226,1.095,1.226C12.727,15.762,13.221,15.209,13.221,14.536L13.221,14.536z
						"/>
				</g>
			</g>
		</g>
	</g>
</g>
</svg>
