<?xml version="1.0" encoding="UTF-8" standalone="no"?>
<svg width="16px" height="31px" viewBox="0 0 16 31" version="1.1" xmlns="http://www.w3.org/2000/svg" xmlns:xlink="http://www.w3.org/1999/xlink" xmlns:sketch="http://www.bohemiancoding.com/sketch/ns">
    <!-- Generator: Sketch 3.4 (15575) - http://www.bohemiancoding.com/sketch -->
    <title>marcher</title>
    <desc>Created with Sketch.</desc>
    <defs>
        <linearGradient x1="0%" y1="0%" x2="101.999998%" y2="100.999999%" id="linearGradient-1">
            <stop stop-color="#49344D" offset="0%"></stop>
            <stop stop-color="#75567C" offset="100%"></stop>
        </linearGradient>
    </defs>
    <g id="Differents-items" stroke="none" stroke-width="1" fill="none" fill-rule="evenodd" sketch:type="MSPage">
        <g id="Création-Niveau" sketch:type="MSArtboardGroup" transform="translate(-311.000000, -600.000000)" fill="url(#linearGradient-1)">
            <g id="CONTENT" sketch:type="MSLayerGroup" transform="translate(9.000000, 9.000000)">
                <g id="COLONNE-GAUCHE" transform="translate(16.000000, 88.000000)" sketch:type="MSShapeGroup">
                    <g id="ICONES" transform="translate(16.000000, 454.000000)">
                        <g id="E" transform="translate(250.000000, 37.000000)">
                            <g id="marcher" transform="translate(20.000000, 12.000000)">
                                <path d="M7.24346559,5.00357113 C7.91280972,4.98165393 8.47423482,4.71838429 8.92767611,4.21376221 C9.38111741,3.70914013 9.59702024,3.11678344 9.57544939,2.43669214 C9.55387854,1.75646921 9.30552227,1.17510403 8.83051012,0.692530786 C8.35549798,0.20989172 7.78325506,-0.0204692144 7.11391093,0.00144798301 C6.4445668,0.0233651805 5.8831417,0.28663482 5.4297004,0.7912569 C4.97625911,1.29587898 4.74953846,1.88823567 4.74953846,2.56832696 C4.74953846,3.24841826 4.99782996,3.82984926 5.49447773,4.31248832 C5.99112551,4.79512739 6.57412146,5.02548832 7.24346559,5.00357113 L7.24346559,5.00357113 Z" id="Shape"></path>
                                <path d="M11.8750445,11.3549512 L8.96006478,6.61609766 C8.39863968,5.91402335 7.7077247,5.56301911 6.88719028,5.56301911 C6.32576518,5.56301911 5.78597571,5.80437155 5.26775709,6.28701062 L0.862898785,10.8284119 C0.73334413,11.0039469 0.646995951,11.2013992 0.603789474,11.4207686 L0.0207935223,16.4887091 L0.0207935223,16.6203439 C0.0207935223,16.927448 0.128777328,17.1907176 0.344680162,17.4101529 C0.560582996,17.6294565 0.819692308,17.7392399 1.1220081,17.7392399 C1.42432389,17.7392399 1.67261538,17.6294565 1.86694737,17.4101529 C2.06127935,17.1907176 2.18001619,16.949431 2.22322267,16.6861614 L2.67666397,12.3422123 L4.23131984,10.7625945 L2.80621862,22.8729979 L0.279902834,28.5991783 C0.193554656,28.862448 0.150348178,29.1032081 0.150348178,29.3233015 C0.150348178,29.8052166 0.312291498,30.2118365 0.636178138,30.5409236 C0.960064777,30.8700106 1.35954656,31.0124395 1.8345587,30.9687367 C2.48233198,30.9687367 2.95734413,30.6608429 3.25965992,30.047293 L5.98030769,23.8603248 C5.98030769,23.8162272 6.00187854,23.7395499 6.04508502,23.6299639 C6.08835628,23.5200488 6.13156275,23.4213227 6.17463968,23.3337856 C6.21784615,23.2459193 6.239417,23.1580531 6.239417,23.0705159 L6.56330364,20.1086667 L9.34872874,29.8498408 C9.65104453,30.6396497 10.190834,31.0125711 10.9681619,30.9687367 C11.4000324,30.9687367 11.7778785,30.8041932 12.1017652,30.4751062 C12.4256518,30.1460191 12.5875951,29.7393992 12.5875951,29.2574841 C12.5875951,29.2128599 12.5767773,29.158758 12.5552065,29.0929406 C12.5336356,29.0271231 12.5228178,28.9720998 12.5228178,28.9282654 L8.63617814,15.4356306 L9.08961943,11.0258641 L10.190834,12.8029342 C10.2771822,12.934569 10.385166,13.0442866 10.5147206,13.1320212 L14.336583,15.3039958 C14.5956923,15.3917304 14.7684534,15.4356306 14.8548016,15.4356306 C15.1571174,15.4356306 15.4162267,15.3149873 15.6321296,15.0736348 C15.8480324,14.8322166 15.9560162,14.5580212 15.9560162,14.2509172 C15.9560162,13.8560127 15.7832551,13.5488429 15.4377976,13.3294735 L11.8750445,11.3549512 Z" id="Shape"></path>
                            </g>
                        </g>
                    </g>
                </g>
            </g>
        </g>
    </g>
</svg>