<?xml version="1.0" encoding="UTF-8" standalone="no"?>
<svg width="21px" height="21px" viewBox="0 0 21 21" version="1.1" xmlns="http://www.w3.org/2000/svg" xmlns:xlink="http://www.w3.org/1999/xlink" xmlns:sketch="http://www.bohemiancoding.com/sketch/ns">
    <!-- Generator: Sketch 3.3.3 (12072) - http://www.bohemiancoding.com/sketch -->
    <title>move</title>
    <desc>Created with Sketch.</desc>
    <defs></defs>
    <g id="Page-1" stroke="none" stroke-width="1" fill="none" fill-rule="evenodd" sketch:type="MSPage">
        <g id="Accueil-Backoffice" sketch:type="MSArtboardGroup" transform="translate(-500.000000, -430.000000)" fill="#9B9B9B">
            <g id="CONTENT" sketch:type="MSLayerGroup" transform="translate(-2.000000, 55.000000)">
                <g id="Ligne-A" transform="translate(87.000000, 113.000000)" sketch:type="MSShapeGroup">
                    <g id="Protocole-2" transform="translate(287.000000, 0.000000)">
                        <g id="ACTIONS" transform="translate(0.000000, 248.000000)">
                            <g id="move" transform="translate(128.431373, 14.000000)">
                                <path d="M11.5808824,13.125 L11.5808824,17.0625 L14.1544118,17.0625 L10.2941176,21 L6.43382353,17.0625 L9.00735294,17.0625 L9.00735294,13.125 L11.5808824,13.125 Z" id="Shape"></path>
                                <path d="M9.00735294,7.875 L9.00735294,3.9375 L6.43382353,3.9375 L10.2941176,0 L14.1544118,3.9375 L11.5808824,3.9375 L11.5808824,7.875 L9.00735294,7.875 Z" id="Shape"></path>
                                <path d="M7.72058824,11.8125 L3.86029412,11.8125 L3.86029412,14.4375 L0,10.5 L3.86029412,6.5625 L3.86029412,9.1875 L7.72058824,9.1875 L7.72058824,11.8125 Z" id="Shape"></path>
                                <path d="M12.8676471,9.1875 L16.7279412,9.1875 L16.7279412,6.5625 L20.5882353,10.5 L16.7279412,14.4375 L16.7279412,11.8125 L12.8676471,11.8125 L12.8676471,9.1875 Z" id="Shape"></path>
                            </g>
                        </g>
                    </g>
                </g>
            </g>
        </g>
    </g>
</svg>