<?xml version="1.0" encoding="utf-8"?>
<!-- Generator: Adobe Illustrator 16.0.0, SVG Export Plug-In . SVG Version: 6.00 Build 0)  -->
<!DOCTYPE svg PUBLIC "-//W3C//DTD SVG 1.1//EN" "http://www.w3.org/Graphics/SVG/1.1/DTD/svg11.dtd">
<svg version="1.1" id="Calque_1" xmlns="http://www.w3.org/2000/svg" xmlns:xlink="http://www.w3.org/1999/xlink" x="0px" y="0px"
	 width="448px" height="448px" viewBox="0 0 448 448" enable-background="new 0 0 448 448" xml:space="preserve">
<g id="icomoon-ignore">
</g>
<g id="Page-1" sketch:type="MSPage">
	<g id="Accueil-Protocole" transform="translate(-39.000000, -574.000000)" sketch:type="MSArtboardGroup">
		<g id="CONTENT" transform="translate(0.000000, 55.000000)" sketch:type="MSLayerGroup">
			<g id="COLONNE-GAUCHE-INFO-1" transform="translate(0.000000, 227.000000)">
				<g id="COLONNE-GAUCHE">
					<g id="Button-Oui-_x2F_-Non" transform="translate(25.000000, 275.000000)">
						<g id="radio32" transform="translate(14.000000, 17.000000)">
							<g id="Shape">
								<g sketch:type="MSShapeGroup">
									<path id="path-1" fill="#DC5F00" d="M99.851,129.002c-55.019,0-99.777,43.153-99.777,96.221
										c0,53.05,44.758,96.25,99.777,96.25s99.808-43.2,99.808-96.25C199.659,172.171,154.87,129.002,99.851,129.002
										L99.851,129.002z M99.851,298.717c-42.02,0-76.202-32.955-76.202-73.493c0-40.526,34.183-73.497,76.202-73.497
										c42.051,0,76.234,32.971,76.234,73.497C176.085,265.762,141.887,298.717,99.851,298.717L99.851,298.717z"/>
								</g>
								<g>
									<path id="path-1_1_" fill="none" d="M99.851,129.002c-55.019,0-99.777,43.153-99.777,96.221
										c0,53.05,44.758,96.25,99.777,96.25s99.808-43.2,99.808-96.25C199.659,172.171,154.87,129.002,99.851,129.002
										L99.851,129.002z M99.851,298.717c-42.02,0-76.202-32.955-76.202-73.493c0-40.526,34.183-73.497,76.202-73.497
										c42.051,0,76.234,32.971,76.234,73.497C176.085,265.762,141.887,298.717,99.851,298.717L99.851,298.717z"/>
								</g>
							</g>
							<g id="Shape-Copy-3">
								<g sketch:type="MSShapeGroup">
									<path id="path-2" fill="#DC5F00" d="M348.506,129.002c-55.019,0-99.776,43.168-99.776,96.236
										c0,53.052,44.743,96.235,99.776,96.235c55.02,0,99.809-43.184,99.809-96.235
										C448.314,172.187,403.525,129.002,348.506,129.002L348.506,129.002z M348.506,298.717
										c-42.02,0-76.232-32.955-76.232-73.493c0-40.526,34.213-73.497,76.232-73.497s76.202,32.971,76.202,73.497
										C424.74,265.762,390.525,298.717,348.506,298.717L348.506,298.717z M388.543,225.224c0,21.308-17.941,38.588-40.037,38.588
										s-40.005-17.28-40.005-38.588c0-21.31,17.909-38.59,40.005-38.59S388.543,203.914,388.543,225.224L388.543,225.224z"/>
								</g>
								<g>
									<path id="path-2_1_" fill="none" d="M348.506,129.002c-55.019,0-99.776,43.168-99.776,96.236
										c0,53.052,44.743,96.235,99.776,96.235c55.02,0,99.809-43.184,99.809-96.235
										C448.314,172.187,403.525,129.002,348.506,129.002L348.506,129.002z M348.506,298.717
										c-42.02,0-76.232-32.955-76.232-73.493c0-40.526,34.213-73.497,76.232-73.497s76.202,32.971,76.202,73.497
										C424.74,265.762,390.525,298.717,348.506,298.717L348.506,298.717z M388.543,225.224c0,21.308-17.941,38.588-40.037,38.588
										s-40.005-17.28-40.005-38.588c0-21.31,17.909-38.59,40.005-38.59S388.543,203.914,388.543,225.224L388.543,225.224z"/>
								</g>
							</g>
						</g>
					</g>
				</g>
			</g>
		</g>
	</g>
</g>
</svg>
