<?xml version="1.0" encoding="UTF-8" standalone="no"?>
<svg width="19px" height="19px" viewBox="0 0 19 19" version="1.1" xmlns="http://www.w3.org/2000/svg" xmlns:xlink="http://www.w3.org/1999/xlink" xmlns:sketch="http://www.bohemiancoding.com/sketch/ns">
    <!-- Generator: Sketch 3.3.3 (12072) - http://www.bohemiancoding.com/sketch -->
    <title>dupliquer</title>
    <desc>Created with Sketch.</desc>
    <defs></defs>
    <g id="Page-1" stroke="none" stroke-width="1" fill="none" fill-rule="evenodd" sketch:type="MSPage">
        <g id="Accueil-Backoffice" sketch:type="MSArtboardGroup" transform="translate(-544.000000, -432.000000)" fill="#9B9B9B">
            <g id="CONTENT" sketch:type="MSLayerGroup" transform="translate(-2.000000, 55.000000)">
                <g id="Ligne-A" transform="translate(87.000000, 113.000000)" sketch:type="MSShapeGroup">
                    <g id="Protocole-2" transform="translate(287.000000, 0.000000)">
                        <g id="ACTIONS" transform="translate(0.000000, 248.000000)">
                            <g id="dupliquer" transform="translate(172.549020, 16.000000)">
                                <path d="M14.4868791,18.7362167 L0.775212418,18.7362167 C0.374411765,18.7362167 0.0496732026,18.4049833 0.0496732026,17.9961667 L0.0496732026,4.01058333 C0.0496732026,3.60176667 0.374411765,3.27053333 0.775212418,3.27053333 L14.4868791,3.27053333 C14.8876797,3.27053333 15.2124183,3.60208333 15.2124183,4.01058333 L15.2124183,17.9961667 C15.2124183,18.4046667 14.8876797,18.7362167 14.4868791,18.7362167 L14.4868791,18.7362167 Z M1.50075163,17.2558 L13.7610294,17.2558 L13.7610294,4.75063333 L1.50075163,4.75063333 L1.50075163,17.2558 L1.50075163,17.2558 Z" id="Shape"></path>
                                <path d="M17.5936275,15.466 L16.1205065,15.466 C15.7197059,15.466 15.3949673,15.13445 15.3949673,14.72595 C15.3949673,14.3171333 15.7197059,13.9859 16.1205065,13.9859 L16.8680882,13.9859 L16.8680882,1.48041667 L4.6075,1.48041667 L4.6075,2.30375 C4.6075,2.71256667 4.28276144,3.0438 3.88196078,3.0438 C3.48116013,3.0438 3.15642157,2.71225 3.15642157,2.30375 L3.15642157,0.74005 C3.15642157,0.33155 3.48116013,0 3.88196078,0 L17.5936275,0 C17.9944281,0 18.3191667,0.33155 18.3191667,0.74005 L18.3191667,14.72595 C18.3191667,15.13445 17.9944281,15.466 17.5936275,15.466 L17.5936275,15.466 Z" id="Shape"></path>
                            </g>
                        </g>
                    </g>
                </g>
            </g>
        </g>
    </g>
</svg>