<?xml version="1.0" encoding="utf-8"?>
<!-- Generator: Adobe Illustrator 16.0.0, SVG Export Plug-In . SVG Version: 6.00 Build 0)  -->
<!DOCTYPE svg PUBLIC "-//W3C//DTD SVG 1.1//EN" "http://www.w3.org/Graphics/SVG/1.1/DTD/svg11.dtd">
<svg version="1.1" id="Calque_1" xmlns="http://www.w3.org/2000/svg" xmlns:xlink="http://www.w3.org/1999/xlink" x="0px" y="0px"
	 width="448px" height="448px" viewBox="0 0 448 448" enable-background="new 0 0 448 448" xml:space="preserve">
<g id="icomoon-ignore">
</g>
<g id="Page-1" sketch:type="MSPage">
	<g id="Accueil-Protocole" transform="translate(-41.000000, -463.000000)" sketch:type="MSArtboardGroup">
		<g id="CONTENT" transform="translate(0.000000, 55.000000)" sketch:type="MSLayerGroup">
			<g id="COLONNE-GAUCHE-INFO-1" transform="translate(0.000000, 227.000000)">
				<g id="COLONNE-GAUCHE">
					<g id="Button-Donnee" transform="translate(25.000000, 167.000000)">
						<g id="donnees">
							<g sketch:type="MSShapeGroup">
								<path id="path-1" fill="none" d="M323.693,317.397c3.17,10.152,17.445,13.35,22.778,3.119
									c6.958-13.325,13.89-26.725,20.798-39.994c4.56,12.627,9.199,25.357,13.785,38.112c1.984,5.438,6.107,9.482,12.035,9.482
									h59.295c16.079,0,16.079-25.897,0-25.897h-43.397c-4.458,0-7.06,0.643-8.554,1.416c0.077-2.318-0.439-6.262-2.809-12.755
									c-5.465-14.998-10.849-29.996-16.313-44.992c-3.531-9.793-17.266-13.762-22.856-3.092
									c-6.597,12.806-13.271,25.509-19.895,38.267c-10.927-35.124-21.826-70.299-32.752-105.448
									c-4.021-12.807-19.689-11.751-24.12,0c-11.673,31.542-23.269,121.038-34.944,152.502
									c-11.93-56.614-23.938-171.031-35.895-227.646c-2.68-12.653-21.004-12.06-24.096,0
									c-14.738,58.522-29.402,117.043-44.117,175.566c-8.297-17.601-16.594-35.252-24.867-52.93
									c-5.255-11.081-19.325-6.288-22.833,3.092c-8.398,22.315-16.827,44.657-25.15,67.077c-1.649,4.38-2.886,7.087-3.762,8.942
									H29.176c-16.08,0-16.08,25.897,0,25.897h45.712c5.979,0,9.973-4.045,12.035-9.482c7.087-18.967,14.198-37.855,21.312-56.821
									c9.044,19.301,18.091,38.629,27.212,57.902c4.819,10.284,20.203,7.216,22.833-3.092
									c13.167-52.388,26.31-104.777,39.504-157.192c11.234,53.085,22.444,164.022,33.654,217.132
									c2.859,13.606,20.048,10.953,24.069,0c12.42-33.603,24.867-125.108,37.186-158.662
									C303.051,251.066,313.358,284.18,323.693,317.397L323.693,317.397z"/>
							</g>
							<g>
								<path id="path-1_1_" fill="#DC5F00" d="M323.693,317.397c3.17,10.152,17.445,13.35,22.778,3.119
									c6.958-13.325,13.89-26.725,20.798-39.994c4.56,12.627,9.199,25.357,13.785,38.112c1.984,5.438,6.107,9.482,12.035,9.482
									h59.295c16.079,0,16.079-25.897,0-25.897h-43.397c-4.458,0-7.06,0.643-8.554,1.416c0.077-2.318-0.439-6.262-2.809-12.755
									c-5.465-14.998-10.849-29.996-16.313-44.992c-3.531-9.793-17.266-13.762-22.856-3.092
									c-6.597,12.806-13.271,25.509-19.895,38.267c-10.927-35.124-21.826-70.299-32.752-105.448
									c-4.021-12.807-19.689-11.751-24.12,0c-11.673,31.542-23.269,121.038-34.944,152.502
									c-11.93-56.614-23.938-171.031-35.895-227.646c-2.68-12.653-21.004-12.06-24.096,0
									c-14.738,58.522-29.402,117.043-44.117,175.566c-8.297-17.601-16.594-35.252-24.867-52.93
									c-5.255-11.081-19.325-6.288-22.833,3.092c-8.398,22.315-16.827,44.657-25.15,67.077c-1.649,4.38-2.886,7.087-3.762,8.942
									H29.176c-16.08,0-16.08,25.897,0,25.897h45.712c5.979,0,9.973-4.045,12.035-9.482c7.087-18.967,14.198-37.855,21.312-56.821
									c9.044,19.301,18.091,38.629,27.212,57.902c4.819,10.284,20.203,7.216,22.833-3.092
									c13.167-52.388,26.31-104.777,39.504-157.192c11.234,53.085,22.444,164.022,33.654,217.132
									c2.859,13.606,20.048,10.953,24.069,0c12.42-33.603,24.867-125.108,37.186-158.662
									C303.051,251.066,313.358,284.18,323.693,317.397L323.693,317.397z"/>
							</g>
						</g>
					</g>
				</g>
			</g>
		</g>
	</g>
</g>
</svg>
