<?xml version="1.0" encoding="UTF-8" standalone="no"?>
<svg width="74px" height="86px" viewBox="0 0 74 86" version="1.1" xmlns="http://www.w3.org/2000/svg" xmlns:xlink="http://www.w3.org/1999/xlink" xmlns:sketch="http://www.bohemiancoding.com/sketch/ns">
    <!-- Generator: Sketch 3.4 (15575) - http://www.bohemiancoding.com/sketch -->
    <title>Shape</title>
    <desc>Created with Sketch.</desc>
    <defs>
        <path d="M69.7447542,20.8798283 L47.6246453,2.68930047 C45.7932077,1.18188003 42.6234872,0.0462825055 40.2522075,0.0462825055 L5.45601212,0.0462825055 C2.44788082,0.0462825055 -1.0658141e-13,2.4936042 -1.0658141e-13,5.50229463 L-1.0658141e-13,80.3810008 C-1.0658141e-13,86 5.31455167,86 5.44119512,86 L67.6790403,86 C70.6877307,86 73.1350524,83.5523987 73.1350524,80.5437083 L73.1350524,28.0582472 C73.1350524,25.555851 71.6771152,22.4694412 69.7447542,20.8798283 L69.7447542,20.8798283 Z M46.1119131,8.28649347 C46.1119131,6.94988792 47.2187153,7.9753364 47.2187153,7.9753364 L64.7522627,22.9558862 C64.7522627,22.9558862 65.8744411,24.0598927 63.9513058,24.0598927 L47.5279154,24.0598927 C46.7470873,24.0598927 46.1119131,23.4249981 46.1119131,22.64417 L46.1119131,8.28649347 L46.1119131,8.28649347 Z M67.6790403,81.9588719 L5.05902825,81.9588719 C4.8350958,81.9588719 4.04056893,81.8948513 4.04056893,80.7897265 L4.04056893,5.50201506 C4.04056893,4.7346061 4.68916229,4.08657187 5.45601212,4.08657187 L40.2519279,4.08657187 C40.8409737,4.08657187 42.0719033,4.39912677 42.0719033,6.08211473 L42.0719033,22.64417 C42.0719033,25.6525808 44.519225,28.1001821 47.5279154,28.1001821 L68.0824542,28.1001821 C68.4576319,28.1001821 69.0925265,28.357942 69.0925265,29.2656932 C69.0925265,29.2799511 69.094763,80.5434287 69.094763,80.5434287 C69.094763,81.3242569 68.4598684,81.9588719 67.6790403,81.9588719 L67.6790403,81.9588719 Z" id="path-1"></path>
    </defs>
    <g id="Differents-items" stroke="none" stroke-width="1" fill="none" fill-rule="evenodd" sketch:type="MSPage">
        <g id="Création-Tache" sketch:type="MSArtboardGroup" transform="translate(-64.000000, -438.000000)">
            <g id="CONTENT" sketch:type="MSLayerGroup" transform="translate(9.000000, 9.000000)">
                <g id="COLONNE-GAUCHE" transform="translate(16.000000, 88.000000)">
                    <g id="DOCUMENT" transform="translate(16.000000, 326.000000)">
                        <g id="A">
                            <g id="Shape" transform="translate(23.000000, 15.000000)">
                                <g>
                                    <use fill="#CECECE" sketch:type="MSShapeGroup" xlink:href="#path-1"></use>
                                    <use fill="#B4B4B4" xlink:href="#path-1"></use>
                                </g>
                            </g>
                        </g>
                    </g>
                </g>
            </g>
        </g>
    </g>
</svg>