<?xml version="1.0" encoding="utf-8"?>
<!-- Generator: Adobe Illustrator 16.0.0, SVG Export Plug-In . SVG Version: 6.00 Build 0)  -->
<!DOCTYPE svg PUBLIC "-//W3C//DTD SVG 1.1//EN" "http://www.w3.org/Graphics/SVG/1.1/DTD/svg11.dtd">
<svg version="1.1" id="Calque_1" xmlns="http://www.w3.org/2000/svg" xmlns:xlink="http://www.w3.org/1999/xlink" x="0px" y="0px"
	 width="448px" height="448px" viewBox="0 0 448 448" enable-background="new 0 0 448 448" xml:space="preserve">
<g id="icomoon-ignore">
</g>
<g id="Page-1" sketch:type="MSPage">
	<g id="Accueil-Protocole" transform="translate(-41.000000, -625.000000)" sketch:type="MSArtboardGroup">
		<g id="CONTENT" transform="translate(0.000000, 55.000000)" sketch:type="MSLayerGroup">
			<g id="COLONNE-GAUCHE-INFO-1" transform="translate(0.000000, 227.000000)">
				<g id="COLONNE-GAUCHE">
					<g id="Button-Niveau" transform="translate(25.000000, 329.000000)">
						<g id="level">
							<g sketch:type="MSShapeGroup">
								<path id="path-1" fill="#DC5F00" d="M42.092,287.188c-13.702,0-24.816,10.928-24.816,24.408v48.814
									c0,13.462,11.114,24.39,24.816,24.39s24.816-10.928,24.816-24.39v-48.814C66.908,298.115,55.794,287.188,42.092,287.188
									L42.092,287.188z M141.389,238.408c-13.719,0-24.816,10.893-24.816,24.39v97.612c0,13.445,11.114,24.373,24.816,24.373
									c13.684,0,24.814-10.928,24.814-24.373v-97.612C166.222,249.301,155.072,238.408,141.389,238.408L141.389,238.408z
									 M240.684,189.594c-13.717,0-24.814,10.928-24.814,24.408V360.41c0,13.462,11.098,24.39,24.814,24.39
									c13.686,0,24.816-10.928,24.816-24.39V214.002C265.5,200.521,254.369,189.594,240.684,189.594L240.684,189.594z
									 M339.98,140.797c-13.684,0-24.833,10.927-24.833,24.407V360.41c0,13.445,11.149,24.39,24.833,24.39
									c13.686,0,24.816-10.944,24.816-24.39V165.204C364.797,151.724,353.666,140.797,339.98,140.797L339.98,140.797z M439.277,92
									c-13.702,0-24.833,10.91-24.833,24.373V360.41c0,13.445,11.131,24.39,24.833,24.39c13.684,0,24.814-10.944,24.814-24.39
									V116.373C464.092,102.91,452.961,92,439.277,92L439.277,92z"/>
							</g>
							<g>
								<path id="path-1_1_" fill="none" d="M42.092,287.188c-13.702,0-24.816,10.928-24.816,24.408v48.814
									c0,13.462,11.114,24.39,24.816,24.39s24.816-10.928,24.816-24.39v-48.814C66.908,298.115,55.794,287.188,42.092,287.188
									L42.092,287.188z M141.389,238.408c-13.719,0-24.816,10.893-24.816,24.39v97.612c0,13.445,11.114,24.373,24.816,24.373
									c13.684,0,24.814-10.928,24.814-24.373v-97.612C166.222,249.301,155.072,238.408,141.389,238.408L141.389,238.408z
									 M240.684,189.594c-13.717,0-24.814,10.928-24.814,24.408V360.41c0,13.462,11.098,24.39,24.814,24.39
									c13.686,0,24.816-10.928,24.816-24.39V214.002C265.5,200.521,254.369,189.594,240.684,189.594L240.684,189.594z
									 M339.98,140.797c-13.684,0-24.833,10.927-24.833,24.407V360.41c0,13.445,11.149,24.39,24.833,24.39
									c13.686,0,24.816-10.944,24.816-24.39V165.204C364.797,151.724,353.666,140.797,339.98,140.797L339.98,140.797z M439.277,92
									c-13.702,0-24.833,10.91-24.833,24.373V360.41c0,13.445,11.131,24.39,24.833,24.39c13.684,0,24.814-10.944,24.814-24.39
									V116.373C464.092,102.91,452.961,92,439.277,92L439.277,92z"/>
							</g>
						</g>
					</g>
				</g>
			</g>
		</g>
	</g>
</g>
</svg>
