<?xml version="1.0" encoding="utf-8"?>
<!-- Generator: Adobe Illustrator 16.0.0, SVG Export Plug-In . SVG Version: 6.00 Build 0)  -->
<!DOCTYPE svg PUBLIC "-//W3C//DTD SVG 1.1//EN" "http://www.w3.org/Graphics/SVG/1.1/DTD/svg11.dtd">
<svg version="1.1" id="Calque_1" xmlns="http://www.w3.org/2000/svg" xmlns:xlink="http://www.w3.org/1999/xlink" x="0px" y="0px"
	 width="448px" height="448px" viewBox="0 0 448 448" enable-background="new 0 0 448 448" xml:space="preserve">
<g id="icomoon-ignore">
</g>
<g id="Page-1" sketch:type="MSPage">
	<g id="Accueil-Protocole-Vide" transform="translate(-42.000000, -513.000000)" sketch:type="MSArtboardGroup">
		<g id="CONTENT" transform="translate(0.000000, 55.000000)" sketch:type="MSLayerGroup">
			<g id="COLONNE-GAUCHE-INFO-1" transform="translate(0.000000, 227.000000)">
				<g id="COLONNE-GAUCHE">
					<g id="Button-Choix-multiple" transform="translate(25.000000, 221.000000)">
						<g id="checkmark2" transform="translate(17.000000, 10.000000)">
							<g id="Shape">
								<g sketch:type="MSShapeGroup">
									<path id="path-1" fill="#DC5F00" d="M13.737,130.058h79.996c6.632,0,11.986-5.307,11.986-11.861V39.135
										c0-6.553-5.354-11.862-11.986-11.862H13.737c-6.632,0-12.002,5.309-12.002,11.862v79.062
										C1.735,124.751,7.105,130.058,13.737,130.058L13.737,130.058z M25.724,50.981h55.993v55.355H25.724V50.981L25.724,50.981z
										 M93.733,319.566H13.737c-6.632,0-12.002,5.307-12.002,11.861v79.062c0,6.553,5.37,11.862,12.002,11.862h79.996
										c6.632,0,11.986-5.31,11.986-11.862v-79.062C105.72,324.873,100.365,319.566,93.733,319.566L93.733,319.566z
										 M81.716,398.627H25.724v-55.353h55.993V398.627L81.716,398.627z M134.112,53.098c0-6.553,5.386-11.862,12.019-11.862
										h289.146c6.633,0,11.987,5.309,11.987,11.862c0,6.553-5.354,11.862-11.987,11.862H146.131
										C139.498,64.96,134.112,59.651,134.112,53.098L134.112,53.098z M134.112,100.047c0-6.539,5.386-11.846,12.019-11.846
										h179.947c6.633,0,12.018,5.307,12.018,11.846c0,6.569-5.385,11.861-12.018,11.861H146.131
										C139.498,111.908,134.112,106.616,134.112,100.047L134.112,100.047z M134.112,201.321c0-6.553,5.386-11.861,12.019-11.861
										h231.536c6.633,0,12.003,5.308,12.003,11.861c0,6.553-5.37,11.862-12.003,11.862H146.131
										C139.498,213.184,134.112,207.875,134.112,201.321L134.112,201.321z M134.112,248.287c0-6.554,5.386-11.862,12.019-11.862
										h179.947c6.633,0,12.018,5.309,12.018,11.862c0,6.553-5.385,11.846-12.018,11.846H146.131
										C139.498,260.133,134.112,254.84,134.112,248.287L134.112,248.287z M134.112,347.477c0-6.554,5.386-11.862,12.019-11.862
										h231.536c6.633,0,12.003,5.309,12.003,11.862c0,6.553-5.37,11.846-12.003,11.846H146.131
										C139.498,359.322,134.112,354.029,134.112,347.477L134.112,347.477z M447.249,394.439c0,6.539-5.354,11.832-11.987,11.832
										H146.131c-6.633,0-12.019-5.293-12.019-11.832c0-6.567,5.386-11.86,12.019-11.86h289.146
										C441.895,382.579,447.249,387.872,447.249,394.439L447.249,394.439z M126.734,138.775
										c-5.573-3.518-13.014-1.898-16.562,3.644l-19.987,30.993H13.737c-6.632,0-12.002,5.308-12.002,11.862v79.062
										c0,6.555,5.37,11.861,12.002,11.861h79.996c6.632,0,11.986-5.307,11.986-11.861v-70.889l24.703-38.294
										C133.957,149.626,132.307,142.293,126.734,138.775L126.734,138.775z M74.898,197.135l-21.902,33.951l-23.427-33.235
										c-0.187-0.264-0.405-0.483-0.623-0.716H74.898L74.898,197.135z M25.724,233.889l13.091,18.584H25.724V233.889
										L25.724,233.889z M81.716,252.473H67.675l14.042-21.792V252.473L81.716,252.473z"/>
								</g>
								<g>
									<path id="path-1_1_" fill="none" d="M13.737,130.058h79.996c6.632,0,11.986-5.307,11.986-11.861V39.135
										c0-6.553-5.354-11.862-11.986-11.862H13.737c-6.632,0-12.002,5.309-12.002,11.862v79.062
										C1.735,124.751,7.105,130.058,13.737,130.058L13.737,130.058z M25.724,50.981h55.993v55.355H25.724V50.981L25.724,50.981z
										 M93.733,319.566H13.737c-6.632,0-12.002,5.307-12.002,11.861v79.062c0,6.553,5.37,11.862,12.002,11.862h79.996
										c6.632,0,11.986-5.31,11.986-11.862v-79.062C105.72,324.873,100.365,319.566,93.733,319.566L93.733,319.566z
										 M81.716,398.627H25.724v-55.353h55.993V398.627L81.716,398.627z M134.112,53.098c0-6.553,5.386-11.862,12.019-11.862
										h289.146c6.633,0,11.987,5.309,11.987,11.862c0,6.553-5.354,11.862-11.987,11.862H146.131
										C139.498,64.96,134.112,59.651,134.112,53.098L134.112,53.098z M134.112,100.047c0-6.539,5.386-11.846,12.019-11.846
										h179.947c6.633,0,12.018,5.307,12.018,11.846c0,6.569-5.385,11.861-12.018,11.861H146.131
										C139.498,111.908,134.112,106.616,134.112,100.047L134.112,100.047z M134.112,201.321c0-6.553,5.386-11.861,12.019-11.861
										h231.536c6.633,0,12.003,5.308,12.003,11.861c0,6.553-5.37,11.862-12.003,11.862H146.131
										C139.498,213.184,134.112,207.875,134.112,201.321L134.112,201.321z M134.112,248.287c0-6.554,5.386-11.862,12.019-11.862
										h179.947c6.633,0,12.018,5.309,12.018,11.862c0,6.553-5.385,11.846-12.018,11.846H146.131
										C139.498,260.133,134.112,254.84,134.112,248.287L134.112,248.287z M134.112,347.477c0-6.554,5.386-11.862,12.019-11.862
										h231.536c6.633,0,12.003,5.309,12.003,11.862c0,6.553-5.37,11.846-12.003,11.846H146.131
										C139.498,359.322,134.112,354.029,134.112,347.477L134.112,347.477z M447.249,394.439c0,6.539-5.354,11.832-11.987,11.832
										H146.131c-6.633,0-12.019-5.293-12.019-11.832c0-6.567,5.386-11.86,12.019-11.86h289.146
										C441.895,382.579,447.249,387.872,447.249,394.439L447.249,394.439z M126.734,138.775
										c-5.573-3.518-13.014-1.898-16.562,3.644l-19.987,30.993H13.737c-6.632,0-12.002,5.308-12.002,11.862v79.062
										c0,6.555,5.37,11.861,12.002,11.861h79.996c6.632,0,11.986-5.307,11.986-11.861v-70.889l24.703-38.294
										C133.957,149.626,132.307,142.293,126.734,138.775L126.734,138.775z M74.898,197.135l-21.902,33.951l-23.427-33.235
										c-0.187-0.264-0.405-0.483-0.623-0.716H74.898L74.898,197.135z M25.724,233.889l13.091,18.584H25.724V233.889
										L25.724,233.889z M81.716,252.473H67.675l14.042-21.792V252.473L81.716,252.473z"/>
								</g>
							</g>
						</g>
					</g>
				</g>
			</g>
		</g>
	</g>
</g>
</svg>
