<?xml version="1.0" encoding="UTF-8" standalone="no"?>
<svg width="24px" height="24px" viewBox="0 0 24 24" version="1.1" xmlns="http://www.w3.org/2000/svg" xmlns:xlink="http://www.w3.org/1999/xlink" xmlns:sketch="http://www.bohemiancoding.com/sketch/ns">
    <!-- Generator: Sketch 3.3.3 (12072) - http://www.bohemiancoding.com/sketch -->
    <title>chercher</title>
    <desc>Created with Sketch.</desc>
    <defs></defs>
    <g id="Page-1" stroke="none" stroke-width="1" fill="none" fill-rule="evenodd" sketch:type="MSPage">
        <g id="Accueil-Backoffice" sketch:type="MSArtboardGroup" transform="translate(-879.000000, -82.000000)" fill="#DADADA">
            <g id="CONTENT" sketch:type="MSLayerGroup" transform="translate(-2.000000, 55.000000)">
                <g id="FILTRES" transform="translate(2.000000, 0.000000)" sketch:type="MSShapeGroup">
                    <g id="RECHERCHER" transform="translate(369.000000, 27.000000)">
                        <path d="M533.466714,20.8559671 L528.519546,15.9090004 C529.711768,14.1879561 530.308183,12.2693363 530.308183,10.1541512 C530.308183,8.77915462 530.041246,7.46412281 529.507373,6.20935886 C528.973853,4.95439285 528.252609,3.87270328 527.343943,2.96403756 C526.435277,2.05537184 525.353739,1.33412759 524.099026,0.800557381 C522.843908,0.266835621 521.528978,-3.55271368e-15 520.153981,-3.55271368e-15 C518.779086,-3.55271368e-15 517.464054,0.266835621 516.20929,0.800557381 C514.954324,1.33412759 513.872634,2.05537184 512.963968,2.96403756 C512.055202,3.87270328 511.334058,4.95459492 510.800438,6.20935886 C510.266767,7.46427436 509.999931,8.77915462 509.999931,10.1541512 C509.999931,11.5290467 510.266767,12.8436239 510.800438,14.0987415 C511.334008,15.3535054 512.055202,16.4350434 512.963968,17.3437092 C513.872634,18.252678 514.954526,18.9736191 516.20929,19.5074924 C517.464205,20.0411132 518.779086,20.3078983 520.153981,20.3078983 C522.269621,20.3078983 524.187938,19.7114333 525.909083,18.5193115 L530.856252,23.4519312 C531.2024,23.8172262 531.634531,24 532.154208,24 C532.654184,24 533.087123,23.8172767 533.452216,23.4519312 C533.81746,23.0866866 534.000234,22.6539502 534.000234,22.1539744 C534.000386,21.6446528 533.822512,21.2117648 533.466714,20.8559671 L533.466714,20.8559671 Z M524.718982,14.7186468 C523.454569,15.9832617 521.93302,16.6155439 520.153981,16.6155439 C518.375245,16.6155439 516.853696,15.9831102 515.589182,14.7186468 C514.324668,13.4542339 513.692437,11.932887 513.692437,10.1538481 C513.692437,8.37511235 514.32482,6.85331071 515.589182,5.5890494 C516.853444,4.32448498 518.375245,3.69230381 520.153981,3.69230381 C521.932818,3.69230381 523.454367,4.32473757 524.718982,5.5890494 C525.983597,6.85331071 526.615828,8.37511235 526.615828,10.1538481 C526.615828,11.932887 525.983395,13.4542339 524.718982,14.7186468 L524.718982,14.7186468 Z" id="chercher"></path>
                    </g>
                </g>
            </g>
        </g>
    </g>
</svg>