<?xml version="1.0" encoding="UTF-8" standalone="no"?>
<svg width="16px" height="19px" viewBox="0 0 16 19" version="1.1" xmlns="http://www.w3.org/2000/svg" xmlns:xlink="http://www.w3.org/1999/xlink" xmlns:sketch="http://www.bohemiancoding.com/sketch/ns">
    <!-- Generator: Sketch 3.3.3 (12072) - http://www.bohemiancoding.com/sketch -->
    <title>delete</title>
    <desc>Created with Sketch.</desc>
    <defs></defs>
    <g id="Page-1" stroke="none" stroke-width="1" fill="none" fill-rule="evenodd" sketch:type="MSPage">
        <g id="Accueil-Backoffice" sketch:type="MSArtboardGroup" transform="translate(-589.000000, -431.000000)" fill="#9B9B9B">
            <g id="CONTENT" sketch:type="MSLayerGroup" transform="translate(-2.000000, 55.000000)">
                <g id="Ligne-A" transform="translate(87.000000, 113.000000)" sketch:type="MSShapeGroup">
                    <g id="Protocole-2" transform="translate(287.000000, 0.000000)">
                        <g id="ACTIONS" transform="translate(0.000000, 248.000000)">
                            <g id="delete" transform="translate(217.647059, 15.000000)">
                                <path d="M13.417511,2.23511097 L10.9376882,2.23511097 L10.9376882,0.588166452 C10.9376882,0.256659355 10.6760546,0 10.3517171,0 C10.3202452,0 10.299256,0.0107380645 10.2890133,0.0214516129 C10.2785067,0.0107380645 10.2575175,0 10.2470348,0 L4.41881923,0 L4.37708066,0 L4.33510222,0 C4.01076474,0 3.75963768,0.256659355 3.75963768,0.588166452 L3.75963768,2.23513548 L1.26933228,2.23513548 C0.557689664,2.23513548 0.00319036196,2.80185032 0.00319036196,3.52917032 L0.00319036196,4.47027097 L0.00319036196,5.64657935 L1.10189825,5.64657935 L1.10189825,17.6987084 C1.10189825,18.4260529 1.64591493,18.9820297 2.35755755,18.9820297 L12.3293097,18.9820297 C13.0409523,18.9820297 13.5954277,18.4260529 13.5954277,17.6987084 L13.5954277,5.64657935 L14.6836529,5.64657935 L14.6836529,4.47027097 L14.6836529,3.52917032 C14.6836529,2.80185032 14.1289377,2.23511097 13.417511,2.23511097 L13.417511,2.23511097 Z M4.91059074,1.17630839 L9.77625255,1.17630839 L9.77625255,2.23511097 L4.91059074,2.23511097 L4.91059074,1.17630839 L4.91059074,1.17630839 Z M12.433992,17.6987329 C12.433992,17.7737768 12.4025201,17.8056968 12.3293097,17.8056968 L2.35755755,17.8056968 C2.28434714,17.8056968 2.2528753,17.7737523 2.2528753,17.6987329 L2.2528753,5.64655484 L12.433992,5.64655484 L12.433992,17.6987329 L12.433992,17.6987329 Z M13.5222172,4.47024645 L1.16462604,4.47024645 L1.16462604,3.52914581 C1.16462604,3.45429806 1.19609788,3.41141935 1.2693083,3.41141935 L13.417511,3.41141935 C13.4907454,3.41141935 13.5222172,3.45429806 13.5222172,3.52914581 L13.5222172,4.47024645 L13.5222172,4.47024645 Z" id="Shape"></path>
                                <rect id="Rectangle-path" x="9.45189109" y="7.02615097" width="1.16143568" height="9.73148129"></rect>
                                <rect id="Rectangle-path" x="6.77318642" y="7.02615097" width="1.16143568" height="9.73148129"></rect>
                                <rect id="Rectangle-path" x="4.09445777" y="7.02615097" width="1.16143568" height="9.73148129"></rect>
                            </g>
                        </g>
                    </g>
                </g>
            </g>
        </g>
    </g>
</svg>